<mxfile host="Electron" modified="2024-02-21T00:36:19.041Z" agent="Mozilla/5.0 (Windows NT 10.0; Win64; x64) AppleWebKit/537.36 (KHTML, like Gecko) draw.io/22.1.2 Chrome/114.0.5735.289 Electron/25.9.4 Safari/537.36" etag="H_x-nwoGWnccR5rfSrk1" version="22.1.2" type="device">
  <diagram name="Page-1" id="3-s8EIBcKJgog-lPRKVN">
    <mxGraphModel dx="339" dy="394" grid="1" gridSize="10" guides="1" tooltips="1" connect="1" arrows="1" fold="1" page="1" pageScale="1" pageWidth="850" pageHeight="1100" math="0" shadow="0">
      <root>
        <mxCell id="0" />
        <mxCell id="1" parent="0" />
        <mxCell id="wTtHlsHALVU5AmRM62-Z-4" value="" style="rounded=1;whiteSpace=wrap;html=1;absoluteArcSize=1;arcSize=14;strokeWidth=2;" vertex="1" parent="1">
          <mxGeometry x="310" y="120" width="210" height="320" as="geometry" />
        </mxCell>
        <mxCell id="wTtHlsHALVU5AmRM62-Z-5" value="" style="endArrow=none;html=1;rounded=0;entryX=1;entryY=0.351;entryDx=0;entryDy=0;entryPerimeter=0;exitX=0.002;exitY=0.355;exitDx=0;exitDy=0;exitPerimeter=0;" edge="1" parent="1" source="wTtHlsHALVU5AmRM62-Z-4" target="wTtHlsHALVU5AmRM62-Z-4">
          <mxGeometry width="50" height="50" relative="1" as="geometry">
            <mxPoint x="390" y="290" as="sourcePoint" />
            <mxPoint x="440" y="240" as="targetPoint" />
          </mxGeometry>
        </mxCell>
        <mxCell id="wTtHlsHALVU5AmRM62-Z-6" value="" style="whiteSpace=wrap;html=1;aspect=fixed;fillColor=#051D04;" vertex="1" parent="1">
          <mxGeometry x="330" y="250" width="30" height="30" as="geometry" />
        </mxCell>
        <mxCell id="wTtHlsHALVU5AmRM62-Z-18" value="" style="whiteSpace=wrap;html=1;aspect=fixed;fillColor=#33FF33;" vertex="1" parent="1">
          <mxGeometry x="380" y="250" width="30" height="30" as="geometry" />
        </mxCell>
        <mxCell id="wTtHlsHALVU5AmRM62-Z-19" value="" style="whiteSpace=wrap;html=1;aspect=fixed;fillColor=#051D04;" vertex="1" parent="1">
          <mxGeometry x="425" y="250" width="30" height="30" as="geometry" />
        </mxCell>
        <mxCell id="wTtHlsHALVU5AmRM62-Z-20" value="" style="whiteSpace=wrap;html=1;aspect=fixed;fillColor=#051D04;" vertex="1" parent="1">
          <mxGeometry x="470" y="250" width="30" height="30" as="geometry" />
        </mxCell>
        <mxCell id="wTtHlsHALVU5AmRM62-Z-21" value="" style="whiteSpace=wrap;html=1;aspect=fixed;fillColor=#051D04;" vertex="1" parent="1">
          <mxGeometry x="330" y="300" width="30" height="30" as="geometry" />
        </mxCell>
        <mxCell id="wTtHlsHALVU5AmRM62-Z-22" value="" style="whiteSpace=wrap;html=1;aspect=fixed;fillColor=#051D04;" vertex="1" parent="1">
          <mxGeometry x="380" y="300" width="30" height="30" as="geometry" />
        </mxCell>
        <mxCell id="wTtHlsHALVU5AmRM62-Z-23" value="" style="whiteSpace=wrap;html=1;aspect=fixed;fillColor=#051D04;" vertex="1" parent="1">
          <mxGeometry x="425" y="300" width="30" height="30" as="geometry" />
        </mxCell>
        <mxCell id="wTtHlsHALVU5AmRM62-Z-24" value="" style="whiteSpace=wrap;html=1;aspect=fixed;fillColor=#051D04;" vertex="1" parent="1">
          <mxGeometry x="470" y="300" width="30" height="30" as="geometry" />
        </mxCell>
        <mxCell id="wTtHlsHALVU5AmRM62-Z-25" value="" style="whiteSpace=wrap;html=1;aspect=fixed;fillColor=#051D04;" vertex="1" parent="1">
          <mxGeometry x="330" y="350" width="30" height="30" as="geometry" />
        </mxCell>
        <mxCell id="wTtHlsHALVU5AmRM62-Z-26" value="" style="whiteSpace=wrap;html=1;aspect=fixed;fillColor=#051D04;" vertex="1" parent="1">
          <mxGeometry x="425" y="350" width="30" height="30" as="geometry" />
        </mxCell>
        <mxCell id="wTtHlsHALVU5AmRM62-Z-27" value="" style="whiteSpace=wrap;html=1;aspect=fixed;fillColor=#051D04;" vertex="1" parent="1">
          <mxGeometry x="380" y="350" width="30" height="30" as="geometry" />
        </mxCell>
        <mxCell id="wTtHlsHALVU5AmRM62-Z-28" value="" style="whiteSpace=wrap;html=1;aspect=fixed;fillColor=#051D04;" vertex="1" parent="1">
          <mxGeometry x="470" y="350" width="30" height="30" as="geometry" />
        </mxCell>
        <mxCell id="wTtHlsHALVU5AmRM62-Z-30" value="Next Round" style="rounded=0;whiteSpace=wrap;html=1;" vertex="1" parent="1">
          <mxGeometry x="380" y="400" width="80" height="20" as="geometry" />
        </mxCell>
        <mxCell id="wTtHlsHALVU5AmRM62-Z-32" value="&lt;font style=&quot;font-size: 8px;&quot;&gt;Round : 6&lt;br&gt;High Score : 10&lt;/font&gt;" style="text;html=1;align=left;verticalAlign=middle;resizable=0;points=[];autosize=1;strokeColor=none;fillColor=none;" vertex="1" parent="1">
          <mxGeometry x="320" y="130" width="80" height="40" as="geometry" />
        </mxCell>
      </root>
    </mxGraphModel>
  </diagram>
</mxfile>
